<svg width="28" height="25" viewBox="0 0 28 25" fill="none" xmlns="http://www.w3.org/2000/svg">
<path d="M25.4021 1.96985C22.2973 -1.05187 17.4639 -0.272442 14.0012 2.124C10.5386 -0.272209 5.705 -1.05257 2.60022 1.96985C1.77616 2.76971 1.1222 3.72069 0.675965 4.7681C0.229724 5.81551 0 6.9387 0 8.07307C0 9.20744 0.229724 10.3306 0.675965 11.378C1.1222 12.4255 1.77616 13.3764 2.60022 14.1763L3.74881 15.2942L14.0012 25L24.0585 15.4841L25.4021 14.1761C26.2255 13.3759 26.8789 12.4248 27.3247 11.3774C27.7705 10.3301 28 9.20711 28 8.07295C28 6.9388 27.7705 5.81582 27.3247 4.76847C26.8789 3.72113 26.2255 2.77005 25.4021 1.96985Z" fill="#869299"/>
<path d="M11.3311 12.667L11.4121 12.6621C11.5985 12.6393 11.7678 12.5377 11.877 12.3818L14.1309 9.16211L16.3848 12.3818C16.5094 12.5599 16.7133 12.6669 16.9307 12.667C17.1482 12.667 17.3528 12.5601 17.4775 12.3818L19.6777 9.23828H21.998C22.3661 9.23811 22.6641 8.93937 22.6641 8.57129C22.664 8.20327 22.366 7.90447 21.998 7.9043H19.3311C19.1135 7.9043 18.9099 8.01123 18.7852 8.18945L16.9307 10.8379L14.6768 7.61816C14.552 7.43995 14.3484 7.33301 14.1309 7.33301C13.9134 7.33307 13.7097 7.44 13.585 7.61816L10.9844 11.333H7.33105C6.96286 11.333 6.66406 11.6318 6.66406 12C6.66406 12.3682 6.96286 12.667 7.33105 12.667H11.3311Z" fill="#97A2AB"/>
</svg>
