<svg width="32" height="32" viewBox="0 0 32 32" fill="none" xmlns="http://www.w3.org/2000/svg">
<path d="M24.4059 12.1318C25.7867 20.7075 22.5409 24.3697 18.9385 25.8862C18.1569 25.8566 17.5663 25.6046 17.1852 25.1342C17.0971 25.0259 17.0231 24.9092 16.9596 24.7882C19.6771 23.478 22.4976 21.4627 22.5486 18.7293C22.6258 14.6611 21.1109 20.495 16.7371 24.192C16.5262 23.3507 16.674 22.5028 16.6758 22.4916L16.6848 22.4443L16.6824 22.3967C16.3634 19.1612 16.9935 19.1612 14 16.4038C14 16.4038 15.4969 14.8282 18.963 14.8282C22.4298 14.8279 23.1516 13.4539 24.4059 12.1318Z" fill="#60AF00"/>
<path d="M7.80748 20.5614C6.50535 15.126 10.9774 24.5623 18.6384 26.6896L18.6875 26.2914C15.2895 26.1915 15.9893 22.3934 15.9893 22.3934C15.6893 15.3967 7.99324 14.7965 7.99324 14.7965C3.69511 14.1969 2.03361 12.0977 2.03361 12.0977C1.1341 31.6891 18.588 27.091 18.588 27.091L18.6244 26.8016C14.8714 26.2534 8.80532 24.7288 7.80748 20.5614Z" fill="#60AF00"/>
<path d="M28.7465 4.00025C26.2107 4.87674 23.7446 7.74765 22.1372 9.97543V9.97605C20.0949 9.5585 16.8923 9.28905 13.2896 9.28905C7.12147 9.28905 2.12109 10.0775 2.12109 11.0498C2.12109 11.454 2.98576 11.8258 4.43631 12.1229C5.06357 11.5928 8.81346 11.1855 13.3477 11.1855C16.3341 11.1855 18.9782 11.3622 20.616 11.6344L19.8176 12.0143C18.2682 11.8 15.994 11.6643 13.4588 11.6643C9.59256 11.6643 6.33459 11.9798 5.32431 12.4101C7.69677 12.8921 14.1399 13.8853 21.2722 12.3053C21.8485 12.235 22.281 12.1248 22.5806 12.0262C22.6182 12.0172 22.6578 12.0084 22.6942 11.9997C22.7324 11.9904 22.7713 11.9807 22.8083 11.9714C22.8535 11.9599 22.8952 11.9484 22.9384 11.9369C22.9773 11.9263 23.0168 11.9157 23.0545 11.9048C23.0952 11.8933 23.1341 11.8818 23.173 11.8703C23.2119 11.8588 23.2495 11.8473 23.2859 11.8354C23.3217 11.8242 23.3572 11.8134 23.3911 11.8018C23.4325 11.7878 23.472 11.7741 23.5109 11.7601C23.5377 11.7508 23.5657 11.7409 23.5918 11.7315C23.6512 11.7088 23.7072 11.6864 23.7607 11.6637C23.7838 11.6537 23.8059 11.6438 23.8276 11.6341C23.8603 11.6192 23.8933 11.6043 23.9244 11.5887C23.9456 11.5781 23.9664 11.5675 23.9863 11.557C24.0156 11.5414 24.0442 11.5259 24.0703 11.51C24.0875 11.5003 24.1049 11.4904 24.1207 11.4804C24.1534 11.4599 24.1839 11.439 24.2119 11.4182C24.2191 11.4129 24.2265 11.4086 24.2324 11.4033C24.2657 11.3778 24.2944 11.3516 24.3205 11.3258C24.3289 11.3174 24.3364 11.3087 24.3441 11.3C24.3606 11.2816 24.3759 11.2629 24.3886 11.2446C24.3952 11.2352 24.4014 11.2253 24.407 11.2156C24.4185 11.1967 24.4269 11.178 24.4344 11.159C24.4381 11.1503 24.4422 11.1419 24.4446 11.1329C24.4524 11.1058 24.458 11.0778 24.458 11.0501C24.458 11.023 24.4524 10.9957 24.4446 10.9686C24.4422 10.9602 24.439 10.9521 24.4356 10.9443C24.4285 10.9247 24.4191 10.9054 24.4076 10.8858C24.4026 10.8771 24.398 10.8687 24.3924 10.8603C24.3759 10.8367 24.3572 10.8127 24.3345 10.7891C24.332 10.7863 24.3301 10.7835 24.328 10.781C24.3031 10.7552 24.2732 10.7296 24.2412 10.7044C24.2303 10.6957 24.2188 10.6876 24.2066 10.6789C24.183 10.6612 24.1568 10.6438 24.1295 10.626C24.1155 10.6173 24.1021 10.6086 24.0868 10.5999C24.0529 10.5797 24.0162 10.5594 23.9779 10.5392C23.9683 10.5342 23.9602 10.5296 23.9505 10.5246C23.9505 10.5246 23.9499 10.5243 23.9493 10.5243C25.5999 9.05632 27.6065 7.47945 27.6065 7.47945C32.2154 3.90411 28.7465 4.00025 28.7465 4.00025Z" fill="#CCFF80"/>
</svg>
