<svg width="32" height="32" viewBox="0 0 32 32" fill="none" xmlns="http://www.w3.org/2000/svg">
<path d="M11.7627 5C11.7534 10.0092 9.69698 13.7325 8.71387 16.582H24.0859C23.109 13.7422 21.062 9.99956 21.0371 5H22.1328C22.2324 10.9215 25.8037 14.8609 25.8037 18.9482C25.8037 22.223 25.496 24.9178 25.0449 27H23.7871C24.2569 25.1691 24.6094 22.6739 24.6094 19.3086C24.6093 18.5513 24.4755 17.8261 24.2578 17.1074L16.9121 23.583V27H15.7451V23.6797L8.51855 17.1943C8.31636 17.8841 8.19827 18.5802 8.19824 19.3086C8.19824 22.6738 8.54586 25.1723 9.01562 27H7.75586C7.31099 24.9177 7.00003 22.2231 7 18.9482C7 14.8512 10.5937 10.9376 10.6621 5H11.7627ZM15.8984 13.1807C16.0147 13.1807 16.1267 13.2644 16.209 13.4131C16.2912 13.5617 16.3369 13.7635 16.3369 13.9736C16.3369 14.1839 16.2913 14.3864 16.209 14.5352C16.1267 14.6837 16.0147 14.7666 15.8984 14.7666C15.7823 14.7665 15.6711 14.6835 15.5889 14.5352C15.5066 14.3864 15.46 14.1839 15.46 13.9736C15.46 13.7635 15.5067 13.5617 15.5889 13.4131C15.6711 13.2647 15.7823 13.1807 15.8984 13.1807Z" fill="#DC1DC9"/>
<path d="M15.7271 23.6981L8.5 17.2126L8.696 16.6001H24.068L24.2391 17.1255L16.8938 23.6014L15.7271 23.6981Z" fill="#FBA6EA"/>
</svg>
