<svg width="32" height="32" viewBox="0 0 32 32" fill="none" xmlns="http://www.w3.org/2000/svg">
<path d="M20.8187 12.0624L24.1768 10.3439L27.5349 12.0624L26.8939 8.42337L29.6109 5.84422L25.8574 5.3143L24.1736 2L22.4961 5.31124L18.7426 5.84116L21.4597 8.4203L20.8187 12.0624ZM23.2647 21.6867C16.2615 21.6867 10.585 16.2006 10.585 9.43726C10.585 7.04496 11.3057 4.82114 12.5303 2.93732C6.46788 4.51789 2 9.85997 2 16.2221C2 23.8309 8.38132 30 16.2519 30C22.8405 30 28.3672 25.6718 30 19.7998C28.0483 20.9883 25.7426 21.6867 23.2647 21.6867Z" fill="#6D737A"/>
<path d="M20.8183 12.0624L24.1764 10.3439L27.5344 12.0624L26.8934 8.42337L29.6105 5.84422L25.857 5.3143L24.1732 2L22.4957 5.31124L18.7422 5.84116L21.4593 8.4203L20.8183 12.0624Z" fill="#D6E1EF" fill-opacity="0.8"/>
</svg>
