<svg width="315" height="303" viewBox="0 0 315 303" fill="none" xmlns="http://www.w3.org/2000/svg">
<g filter="url(#filter0_i_320_80)">
<path d="M108.295 38.6633C125.064 17.1671 133.448 6.41905 143.635 2.54594C152.563 -0.848612 162.427 -0.848612 171.355 2.54594C181.542 6.41905 189.927 17.1671 206.696 38.6633L217.181 52.1048C221.287 57.3677 223.34 59.9992 225.764 62.2141C227.916 64.1803 230.281 65.8991 232.816 67.3382C235.672 68.9593 238.809 70.0984 245.083 72.3767L261.107 78.1954C286.733 87.501 299.546 92.1538 306.377 100.645C312.365 108.088 315.413 117.468 314.943 127.009C314.408 137.894 306.777 149.189 291.514 171.78L281.971 185.906C278.234 191.437 276.366 194.203 275.009 197.193C273.804 199.847 272.9 202.628 272.315 205.484C271.655 208.7 271.541 212.036 271.313 218.707L270.731 235.745C269.8 262.992 269.334 276.615 263.369 285.737C258.142 293.731 250.162 299.528 240.944 302.03C230.426 304.884 217.325 301.117 191.123 293.583L174.74 288.872C168.325 287.027 165.117 286.105 161.854 285.738C158.957 285.412 156.033 285.412 153.136 285.738C149.873 286.105 146.666 287.027 140.251 288.872L123.867 293.583C97.6657 301.117 84.5649 304.884 74.047 302.03C64.8286 299.528 56.8489 293.731 51.621 285.737C45.6562 276.615 45.1906 262.992 44.2593 235.744L43.677 218.707C43.449 212.036 43.335 208.7 42.6757 205.484C42.0904 202.628 41.1868 199.847 39.9818 197.193C38.6244 194.203 36.7561 191.437 33.0195 185.906L23.476 171.78C8.21386 149.189 0.58277 137.894 0.0471559 127.009C-0.422278 117.468 2.62572 108.088 8.61311 100.645C15.4446 92.1538 28.2576 87.501 53.8836 78.1954L69.9074 72.3767C76.1814 70.0984 79.3184 68.9593 82.1741 67.3382C84.7091 65.8991 87.0747 64.1803 89.2267 62.2141C91.6509 59.9992 93.7037 57.3677 97.8093 52.1048L108.295 38.6633Z" fill="url(#paint0_linear_320_80)"/>
</g>
<path d="M143.813 3.01318C152.626 -0.337846 162.364 -0.337846 171.178 3.01318C176.167 4.91008 180.747 8.502 186.192 14.3374C191.638 20.1756 197.911 28.216 206.301 38.9712L216.787 52.4126C220.883 57.6625 222.965 60.3337 225.427 62.5835C227.606 64.5748 230.002 66.3155 232.569 67.7729C235.47 69.4196 238.654 70.5745 244.912 72.8472L260.937 78.6655C273.758 83.3213 283.343 86.803 290.578 90.1792C297.81 93.5538 302.642 96.7999 305.987 100.958C311.898 108.305 314.907 117.566 314.443 126.984C314.181 132.315 312.181 137.781 308.314 144.762C304.444 151.747 298.736 160.197 291.1 171.5L281.557 185.626C277.829 191.144 275.933 193.949 274.554 196.986C273.333 199.674 272.418 202.491 271.825 205.383C271.156 208.651 271.041 212.035 270.814 218.69L270.232 235.727C269.766 249.36 269.417 259.552 268.442 267.477C267.467 275.398 265.873 280.996 262.951 285.463C257.791 293.355 249.913 299.078 240.813 301.547C235.661 302.945 229.845 302.732 222.01 301.211C214.172 299.69 204.371 296.872 191.262 293.102L174.878 288.391C168.479 286.551 165.225 285.614 161.91 285.241C158.976 284.911 156.014 284.911 153.08 285.241C149.766 285.614 146.511 286.551 140.112 288.391L123.729 293.102C110.619 296.872 100.819 299.69 92.9806 301.211C85.1459 302.732 79.3291 302.945 74.1779 301.547C65.0778 299.078 57.2 293.355 52.0392 285.463C49.1179 280.996 47.5236 275.398 46.549 267.477C45.5739 259.552 45.2248 249.36 44.7589 235.727L44.1769 218.69C43.9494 212.035 43.8349 208.651 43.1652 205.383C42.5724 202.491 41.6571 199.674 40.4366 196.986C39.0579 193.949 37.1611 191.144 33.4337 185.626L23.8907 171.5C16.2545 160.197 10.5461 151.747 6.67688 144.762C2.80942 137.781 0.809317 132.315 0.546997 126.984C0.0835961 117.566 3.09244 108.305 9.00305 100.958C12.3488 96.7999 17.1801 93.5538 24.4122 90.1792C31.6478 86.803 41.2325 83.3213 54.0538 78.6655L70.0782 72.8462C76.3367 70.5736 79.5204 69.4196 82.421 67.7729C84.9883 66.3155 87.3841 64.5748 89.5636 62.5835C92.026 60.3337 94.1079 57.6625 98.2032 52.4126L108.69 38.9712C117.08 28.216 123.352 20.1756 128.799 14.3374C134.243 8.502 138.824 4.91008 143.813 3.01318Z" stroke="url(#paint1_linear_320_80)" stroke-opacity="0.4"/>
<path d="M143.813 3.01318C152.626 -0.337846 162.364 -0.337846 171.178 3.01318C176.167 4.91008 180.747 8.502 186.192 14.3374C191.638 20.1756 197.911 28.216 206.301 38.9712L216.787 52.4126C220.883 57.6625 222.965 60.3337 225.427 62.5835C227.606 64.5748 230.002 66.3155 232.569 67.7729C235.47 69.4196 238.654 70.5745 244.912 72.8472L260.937 78.6655C273.758 83.3213 283.343 86.803 290.578 90.1792C297.81 93.5538 302.642 96.7999 305.987 100.958C311.898 108.305 314.907 117.566 314.443 126.984C314.181 132.315 312.181 137.781 308.314 144.762C304.444 151.747 298.736 160.197 291.1 171.5L281.557 185.626C277.829 191.144 275.933 193.949 274.554 196.986C273.333 199.674 272.418 202.491 271.825 205.383C271.156 208.651 271.041 212.035 270.814 218.69L270.232 235.727C269.766 249.36 269.417 259.552 268.442 267.477C267.467 275.398 265.873 280.996 262.951 285.463C257.791 293.355 249.913 299.078 240.813 301.547C235.661 302.945 229.845 302.732 222.01 301.211C214.172 299.69 204.371 296.872 191.262 293.102L174.878 288.391C168.479 286.551 165.225 285.614 161.91 285.241C158.976 284.911 156.014 284.911 153.08 285.241C149.766 285.614 146.511 286.551 140.112 288.391L123.729 293.102C110.619 296.872 100.819 299.69 92.9806 301.211C85.1459 302.732 79.3291 302.945 74.1779 301.547C65.0778 299.078 57.2 293.355 52.0392 285.463C49.1179 280.996 47.5236 275.398 46.549 267.477C45.5739 259.552 45.2248 249.36 44.7589 235.727L44.1769 218.69C43.9494 212.035 43.8349 208.651 43.1652 205.383C42.5724 202.491 41.6571 199.674 40.4366 196.986C39.0579 193.949 37.1611 191.144 33.4337 185.626L23.8907 171.5C16.2545 160.197 10.5461 151.747 6.67688 144.762C2.80942 137.781 0.809317 132.315 0.546997 126.984C0.0835961 117.566 3.09244 108.305 9.00305 100.958C12.3488 96.7999 17.1801 93.5538 24.4122 90.1792C31.6478 86.803 41.2325 83.3213 54.0538 78.6655L70.0782 72.8462C76.3367 70.5736 79.5204 69.4196 82.421 67.7729C84.9883 66.3155 87.3841 64.5748 89.5636 62.5835C92.026 60.3337 94.1079 57.6625 98.2032 52.4126L108.69 38.9712C117.08 28.216 123.352 20.1756 128.799 14.3374C134.243 8.502 138.824 4.91008 143.813 3.01318Z" stroke="#404B3A" stroke-opacity="0.2"/>
<defs>
<filter id="filter0_i_320_80" x="-16" y="-6" width="330.99" height="308.984" filterUnits="userSpaceOnUse" color-interpolation-filters="sRGB">
<feFlood flood-opacity="0" result="BackgroundImageFix"/>
<feBlend mode="normal" in="SourceGraphic" in2="BackgroundImageFix" result="shape"/>
<feColorMatrix in="SourceAlpha" type="matrix" values="0 0 0 0 0 0 0 0 0 0 0 0 0 0 0 0 0 0 127 0" result="hardAlpha"/>
<feOffset dx="-16" dy="-6"/>
<feGaussianBlur stdDeviation="40"/>
<feComposite in2="hardAlpha" operator="arithmetic" k2="-1" k3="1"/>
<feColorMatrix type="matrix" values="0 0 0 0 0.974 0 0 0 0 0.974889 0 0 0 0 0.976 0 0 0 0.03 0"/>
<feBlend mode="normal" in2="shape" result="effect1_innerShadow_320_80"/>
</filter>
<linearGradient id="paint0_linear_320_80" x1="389.138" y1="-292.978" x2="-144.548" y2="611.221" gradientUnits="userSpaceOnUse">
<stop offset="0.144231" stop-color="#353A40"/>
<stop offset="0.543269" stop-color="#121416"/>
</linearGradient>
<linearGradient id="paint1_linear_320_80" x1="311.361" y1="-41.7225" x2="-120.092" y2="159.614" gradientUnits="userSpaceOnUse">
<stop offset="0.0709612" stop-color="#505962"/>
<stop offset="0.507086" stop-opacity="0"/>
<stop offset="1" stop-color="#DCDCDC"/>
</linearGradient>
</defs>
</svg>
