<svg width="390" height="412" viewBox="0 0 390 412" fill="none" xmlns="http://www.w3.org/2000/svg">
<g filter="url(#filter0_ddd_4082_12307)">
<mask id="path-1-outside-1_4082_12307" maskUnits="userSpaceOnUse" x="108.163" y="90.5125" width="174.976" height="174.976" fill="black">
<rect fill="white" x="108.163" y="90.5125" width="174.976" height="174.976"/>
<path d="M110.664 179.484C109.844 132.547 147.23 93.8325 194.167 93.0133C241.104 92.194 279.818 129.58 280.638 176.517C281.457 223.454 244.071 262.168 197.134 262.987C150.197 263.807 111.483 226.421 110.664 179.484ZM253.659 176.988C253.1 144.951 226.675 119.433 194.638 119.992C162.601 120.551 137.083 146.976 137.642 179.013C138.202 211.05 164.626 236.568 196.663 236.009C228.7 235.449 254.218 209.025 253.659 176.988Z"/>
</mask>
<path d="M110.664 179.484C109.844 132.547 147.23 93.8325 194.167 93.0133C241.104 92.194 279.818 129.58 280.638 176.517C281.457 223.454 244.071 262.168 197.134 262.987C150.197 263.807 111.483 226.421 110.664 179.484ZM253.659 176.988C253.1 144.951 226.675 119.433 194.638 119.992C162.601 120.551 137.083 146.976 137.642 179.013C138.202 211.05 164.626 236.568 196.663 236.009C228.7 235.449 254.218 209.025 253.659 176.988Z" fill="url(#paint0_linear_4082_12307)"/>
<path d="M110.664 179.484C109.844 132.547 147.23 93.8325 194.167 93.0133C241.104 92.194 279.818 129.58 280.638 176.517C281.457 223.454 244.071 262.168 197.134 262.987C150.197 263.807 111.483 226.421 110.664 179.484ZM253.659 176.988C253.1 144.951 226.675 119.433 194.638 119.992C162.601 120.551 137.083 146.976 137.642 179.013C138.202 211.05 164.626 236.568 196.663 236.009C228.7 235.449 254.218 209.025 253.659 176.988Z" stroke="url(#paint1_linear_4082_12307)" stroke-width="2" mask="url(#path-1-outside-1_4082_12307)"/>
</g>
<g filter="url(#filter1_di_4082_12307)">
<circle cx="195.121" cy="178" r="95" transform="rotate(-90 195.121 178)" fill="url(#paint2_linear_4082_12307)"/>
<circle cx="195.121" cy="178" r="94.5" transform="rotate(-90 195.121 178)" stroke="url(#paint3_linear_4082_12307)" stroke-opacity="0.4"/>
</g>
<g filter="url(#filter2_ddf_4082_12307)">
<circle cx="195.121" cy="178" r="80" transform="rotate(-90 195.121 178)" fill="url(#paint4_linear_4082_12307)"/>
</g>
<g filter="url(#filter3_ddf_4082_12307)">
<circle cx="195.121" cy="178" r="50" transform="rotate(-90 195.121 178)" fill="url(#paint5_linear_4082_12307)"/>
</g>
<defs>
<filter id="filter0_ddd_4082_12307" x="-26.3516" y="0" width="412.004" height="412" filterUnits="userSpaceOnUse" color-interpolation-filters="sRGB">
<feFlood flood-opacity="0" result="BackgroundImageFix"/>
<feColorMatrix in="SourceAlpha" type="matrix" values="0 0 0 0 0 0 0 0 0 0 0 0 0 0 0 0 0 0 127 0" result="hardAlpha"/>
<feOffset dx="-16" dy="28"/>
<feGaussianBlur stdDeviation="60"/>
<feColorMatrix type="matrix" values="0 0 0 0 0.233333 0 0 0 0 1 0 0 0 0 0 0 0 0 0.1 0"/>
<feBlend mode="normal" in2="BackgroundImageFix" result="effect1_dropShadow_4082_12307"/>
<feColorMatrix in="SourceAlpha" type="matrix" values="0 0 0 0 0 0 0 0 0 0 0 0 0 0 0 0 0 0 127 0" result="hardAlpha"/>
<feOffset dx="-2" dy="2"/>
<feGaussianBlur stdDeviation="12"/>
<feColorMatrix type="matrix" values="0 0 0 0 0.038619 0 0 0 0 0.178241 0 0 0 0 0 0 0 0 0.56 0"/>
<feBlend mode="normal" in2="effect1_dropShadow_4082_12307" result="effect2_dropShadow_4082_12307"/>
<feColorMatrix in="SourceAlpha" type="matrix" values="0 0 0 0 0 0 0 0 0 0 0 0 0 0 0 0 0 0 127 0" result="hardAlpha"/>
<feOffset dx="-16" dy="20"/>
<feGaussianBlur stdDeviation="20"/>
<feColorMatrix type="matrix" values="0 0 0 0 0 0 0 0 0 1 0 0 0 0 0.0666667 0 0 0 0.3 0"/>
<feBlend mode="soft-light" in2="effect2_dropShadow_4082_12307" result="effect3_dropShadow_4082_12307"/>
<feBlend mode="normal" in="SourceGraphic" in2="effect3_dropShadow_4082_12307" result="shape"/>
</filter>
<filter id="filter1_di_4082_12307" x="72.1211" y="31.0005" width="318" height="318" filterUnits="userSpaceOnUse" color-interpolation-filters="sRGB">
<feFlood flood-opacity="0" result="BackgroundImageFix"/>
<feColorMatrix in="SourceAlpha" type="matrix" values="0 0 0 0 0 0 0 0 0 0 0 0 0 0 0 0 0 0 127 0" result="hardAlpha"/>
<feOffset dx="36" dy="12"/>
<feGaussianBlur stdDeviation="32"/>
<feColorMatrix type="matrix" values="0 0 0 0 0.00779221 0 0 0 0 0.00987013 0 0 0 0 0.0122078 0 0 0 0.85 0"/>
<feBlend mode="normal" in2="BackgroundImageFix" result="effect1_dropShadow_4082_12307"/>
<feBlend mode="normal" in="SourceGraphic" in2="effect1_dropShadow_4082_12307" result="shape"/>
<feColorMatrix in="SourceAlpha" type="matrix" values="0 0 0 0 0 0 0 0 0 0 0 0 0 0 0 0 0 0 127 0" result="hardAlpha"/>
<feOffset dx="-16" dy="-6"/>
<feGaussianBlur stdDeviation="40"/>
<feComposite in2="hardAlpha" operator="arithmetic" k2="-1" k3="1"/>
<feColorMatrix type="matrix" values="0 0 0 0 0.974 0 0 0 0 0.974889 0 0 0 0 0.976 0 0 0 0.03 0"/>
<feBlend mode="normal" in2="shape" result="effect2_innerShadow_4082_12307"/>
</filter>
<filter id="filter2_ddf_4082_12307" x="69.1211" y="52.0005" width="276" height="276" filterUnits="userSpaceOnUse" color-interpolation-filters="sRGB">
<feFlood flood-opacity="0" result="BackgroundImageFix"/>
<feColorMatrix in="SourceAlpha" type="matrix" values="0 0 0 0 0 0 0 0 0 0 0 0 0 0 0 0 0 0 127 0" result="hardAlpha"/>
<feOffset dx="12" dy="12"/>
<feGaussianBlur stdDeviation="29"/>
<feColorMatrix type="matrix" values="0 0 0 0 0 0 0 0 0 0 0 0 0 0 0 0 0 0 0.74 0"/>
<feBlend mode="normal" in2="BackgroundImageFix" result="effect1_dropShadow_4082_12307"/>
<feColorMatrix in="SourceAlpha" type="matrix" values="0 0 0 0 0 0 0 0 0 0 0 0 0 0 0 0 0 0 127 0" result="hardAlpha"/>
<feOffset dx="-12" dy="-10"/>
<feGaussianBlur stdDeviation="16"/>
<feColorMatrix type="matrix" values="0 0 0 0 0.763833 0 0 0 0 0.783333 0 0 0 0 0.802833 0 0 0 0.12 0"/>
<feBlend mode="normal" in2="effect1_dropShadow_4082_12307" result="effect2_dropShadow_4082_12307"/>
<feBlend mode="normal" in="SourceGraphic" in2="effect2_dropShadow_4082_12307" result="shape"/>
<feGaussianBlur stdDeviation="4" result="effect3_foregroundBlur_4082_12307"/>
</filter>
<filter id="filter3_ddf_4082_12307" x="99.1211" y="82.0005" width="216" height="216" filterUnits="userSpaceOnUse" color-interpolation-filters="sRGB">
<feFlood flood-opacity="0" result="BackgroundImageFix"/>
<feColorMatrix in="SourceAlpha" type="matrix" values="0 0 0 0 0 0 0 0 0 0 0 0 0 0 0 0 0 0 127 0" result="hardAlpha"/>
<feOffset dx="12" dy="12"/>
<feGaussianBlur stdDeviation="29"/>
<feColorMatrix type="matrix" values="0 0 0 0 0 0 0 0 0 0 0 0 0 0 0 0 0 0 0.74 0"/>
<feBlend mode="normal" in2="BackgroundImageFix" result="effect1_dropShadow_4082_12307"/>
<feColorMatrix in="SourceAlpha" type="matrix" values="0 0 0 0 0 0 0 0 0 0 0 0 0 0 0 0 0 0 127 0" result="hardAlpha"/>
<feOffset dx="-12" dy="-10"/>
<feGaussianBlur stdDeviation="16"/>
<feColorMatrix type="matrix" values="0 0 0 0 0.763833 0 0 0 0 0.783333 0 0 0 0 0.802833 0 0 0 0.12 0"/>
<feBlend mode="normal" in2="effect1_dropShadow_4082_12307" result="effect2_dropShadow_4082_12307"/>
<feBlend mode="normal" in="SourceGraphic" in2="effect2_dropShadow_4082_12307" result="shape"/>
<feGaussianBlur stdDeviation="4" result="effect3_foregroundBlur_4082_12307"/>
</filter>
<linearGradient id="paint0_linear_4082_12307" x1="111.285" y1="215.097" x2="281.262" y2="212.254" gradientUnits="userSpaceOnUse">
<stop stop-color="#5F5FFF"/>
<stop offset="1" stop-color="#1ED6FF"/>
</linearGradient>
<linearGradient id="paint1_linear_4082_12307" x1="325.94" y1="-27.1975" x2="95.8128" y2="120.559" gradientUnits="userSpaceOnUse">
<stop stop-color="white"/>
<stop offset="1" stop-color="#6EFFA1"/>
</linearGradient>
<linearGradient id="paint2_linear_4082_12307" x1="312.175" y1="-52.7138" x2="42.4928" y2="404.195" gradientUnits="userSpaceOnUse">
<stop offset="0.226599" stop-color="#353A40"/>
<stop offset="0.697917" stop-color="#121416"/>
</linearGradient>
<linearGradient id="paint3_linear_4082_12307" x1="272.872" y1="74.2505" x2="54.8512" y2="175.99" gradientUnits="userSpaceOnUse">
<stop offset="0.0709612" stop-color="#505962"/>
<stop offset="0.507086" stop-opacity="0"/>
<stop offset="1"/>
</linearGradient>
<linearGradient id="paint4_linear_4082_12307" x1="475.954" y1="429.667" x2="165.45" y2="-4.46435" gradientUnits="userSpaceOnUse">
<stop stop-color="#32383E"/>
<stop offset="1" stop-color="#17191C"/>
</linearGradient>
<linearGradient id="paint5_linear_4082_12307" x1="370.642" y1="335.292" x2="176.577" y2="63.96" gradientUnits="userSpaceOnUse">
<stop stop-color="#32383E"/>
<stop offset="1" stop-color="#17191C"/>
</linearGradient>
</defs>
</svg>
