<svg width="41" height="50" viewBox="0 0 41 50" fill="none" xmlns="http://www.w3.org/2000/svg">
<path d="M16.2627 5C16.2534 10.0092 14.197 13.7325 13.2139 16.582H28.5859C27.609 13.7422 25.562 9.99956 25.5371 5H26.6328C26.7324 10.9215 30.3037 14.8609 30.3037 18.9482C30.3037 22.223 29.996 24.9178 29.5449 27H28.2871C28.7569 25.1691 29.1094 22.6739 29.1094 19.3086C29.1093 18.5513 28.9755 17.8261 28.7578 17.1074L21.4121 23.583V27H20.2451V23.6797L13.0186 17.1943C12.8164 17.8841 12.6983 18.5802 12.6982 19.3086C12.6982 22.6738 13.0459 25.1723 13.5156 27H12.2559C11.811 24.9177 11.5 22.2231 11.5 18.9482C11.5 14.8512 15.0937 10.9376 15.1621 5H16.2627ZM20.3984 13.1807C20.5147 13.1807 20.6267 13.2644 20.709 13.4131C20.7912 13.5617 20.8369 13.7635 20.8369 13.9736C20.8369 14.1839 20.7913 14.3864 20.709 14.5352C20.6267 14.6837 20.5147 14.7666 20.3984 14.7666C20.2823 14.7665 20.1711 14.6835 20.0889 14.5352C20.0066 14.3864 19.96 14.1839 19.96 13.9736C19.96 13.7635 20.0067 13.5617 20.0889 13.4131C20.1711 13.2647 20.2823 13.1807 20.3984 13.1807Z" fill="#DC1DC9"/>
<path d="M20.2271 23.6981L13 17.2126L13.196 16.6001H28.568L28.7391 17.1255L21.3938 23.6014L20.2271 23.6981Z" fill="#FBA6EA"/>
<path d="M6.76677 44L5.32677 41.498H4.54377V44H3.51777V37.745H5.67777C6.15777 37.745 6.56277 37.829 6.89277 37.997C7.22877 38.165 7.47777 38.39 7.63977 38.672C7.80777 38.954 7.89177 39.269 7.89177 39.617C7.89177 40.025 7.77177 40.397 7.53177 40.733C7.29777 41.063 6.93477 41.288 6.44277 41.408L7.99077 44H6.76677ZM4.54377 40.679H5.67777C6.06177 40.679 6.34977 40.583 6.54177 40.391C6.73977 40.199 6.83877 39.941 6.83877 39.617C6.83877 39.293 6.74277 39.041 6.55077 38.861C6.35877 38.675 6.06777 38.582 5.67777 38.582H4.54377V40.679ZM11.7693 38.96C12.1473 38.96 12.4833 39.041 12.7773 39.203C13.0773 39.365 13.3113 39.605 13.4793 39.923C13.6533 40.241 13.7403 40.625 13.7403 41.075V44H12.7233V41.228C12.7233 40.784 12.6123 40.445 12.3903 40.211C12.1683 39.971 11.8653 39.851 11.4813 39.851C11.0973 39.851 10.7913 39.971 10.5633 40.211C10.3413 40.445 10.2303 40.784 10.2303 41.228V44H9.2043V37.34H10.2303V39.617C10.4043 39.407 10.6233 39.245 10.8873 39.131C11.1573 39.017 11.4513 38.96 11.7693 38.96ZM19.513 39.041L16.471 46.331H15.409L16.417 43.919L14.464 39.041H15.607L17.002 42.821L18.451 39.041H19.513ZM21.4843 39.878V42.623C21.4843 42.809 21.5263 42.944 21.6103 43.028C21.7003 43.106 21.8503 43.145 22.0603 43.145H22.6903V44H21.8803C21.4183 44 21.0643 43.892 20.8183 43.676C20.5723 43.46 20.4493 43.109 20.4493 42.623V39.878H19.8643V39.041H20.4493V37.808H21.4843V39.041H22.6903V39.878H21.4843ZM26.2009 38.96C26.5789 38.96 26.9149 39.041 27.2089 39.203C27.5089 39.365 27.7429 39.605 27.9109 39.923C28.0849 40.241 28.1719 40.625 28.1719 41.075V44H27.1549V41.228C27.1549 40.784 27.0439 40.445 26.8219 40.211C26.5999 39.971 26.2969 39.851 25.9129 39.851C25.5289 39.851 25.2229 39.971 24.9949 40.211C24.7729 40.445 24.6619 40.784 24.6619 41.228V44H23.6359V37.34H24.6619V39.617C24.8359 39.407 25.0549 39.245 25.3189 39.131C25.5889 39.017 25.8829 38.96 26.2009 38.96ZM35.4837 38.96C35.8737 38.96 36.2217 39.041 36.5277 39.203C36.8397 39.365 37.0827 39.605 37.2567 39.923C37.4367 40.241 37.5267 40.625 37.5267 41.075V44H36.5097V41.228C36.5097 40.784 36.3987 40.445 36.1767 40.211C35.9547 39.971 35.6517 39.851 35.2677 39.851C34.8837 39.851 34.5777 39.971 34.3497 40.211C34.1277 40.445 34.0167 40.784 34.0167 41.228V44H32.9997V41.228C32.9997 40.784 32.8887 40.445 32.6667 40.211C32.4447 39.971 32.1417 39.851 31.7577 39.851C31.3737 39.851 31.0677 39.971 30.8397 40.211C30.6177 40.445 30.5067 40.784 30.5067 41.228V44H29.4807V39.041H30.5067V39.608C30.6747 39.404 30.8877 39.245 31.1457 39.131C31.4037 39.017 31.6797 38.96 31.9737 38.96C32.3697 38.96 32.7237 39.044 33.0357 39.212C33.3477 39.38 33.5877 39.623 33.7557 39.941C33.9057 39.641 34.1397 39.404 34.4577 39.23C34.7757 39.05 35.1177 38.96 35.4837 38.96Z" fill="white"/>
</svg>
