<svg width="32" height="32" viewBox="0 0 32 32" fill="none" xmlns="http://www.w3.org/2000/svg">
<path d="M21.4785 22.0371C21.5578 22.0335 21.638 22.0392 21.7158 22.0557C23.9646 22.4382 27.68 23.3899 27.958 25.5176L28 25.5781V25.8779C27.9753 26.4399 27.6964 26.9424 27.2217 27.3906C27.1992 27.4127 27.1768 27.4352 27.1533 27.457C27.1398 27.4691 27.1261 27.4811 27.1123 27.4932C25.3342 29.1011 21.0617 29.9316 16.6699 29.9961L16.667 29.9902C16.41 29.9954 16.1527 30 15.8955 30C9.95569 30 4.008 28.6052 4 25.8018C4 23.4794 7.92459 22.4816 10.2617 22.084C10.3813 22.0588 10.5057 22.0569 10.626 22.0791C10.7462 22.1012 10.8598 22.1472 10.96 22.2129C11.0602 22.2786 11.1451 22.363 11.208 22.4609C11.2709 22.5589 11.3114 22.668 11.3262 22.7812C11.3532 22.8934 11.3547 23.0102 11.3311 23.123C11.3074 23.2356 11.2587 23.3423 11.1885 23.4365C11.1181 23.5309 11.0271 23.6108 10.9219 23.6709C10.8167 23.7309 10.6994 23.7705 10.5771 23.7861C6.96721 24.3649 5.7982 25.4733 5.79785 25.8779C5.79785 26.7846 9.40812 28.3886 15.9922 28.3887C15.9934 28.3887 15.9949 28.3877 15.9961 28.3877L15.9854 28.3613C18.704 28.3613 20.914 28.0861 22.5723 27.7012C24.0562 27.3463 25.0992 26.907 25.6758 26.5098C26.0041 26.2727 26.1717 26.0459 26.1719 25.8506C26.1719 25.6729 25.9209 25.3408 25.2939 24.9746C24.7396 24.6883 24.1614 24.4476 23.5654 24.2539C23.0385 24.0927 22.4183 23.9416 21.6934 23.8105C21.5687 23.7916 21.4438 23.7728 21.3184 23.7578C21.1962 23.7423 21.0788 23.7035 20.9736 23.6436C20.8685 23.5835 20.7774 23.5035 20.707 23.4092C20.6366 23.3148 20.5881 23.2075 20.5645 23.0947C20.5467 23.01 20.5428 22.9233 20.5537 22.8379L20.585 22.6699C20.6054 22.5866 20.6402 22.5062 20.6875 22.4326C20.7504 22.3348 20.8345 22.2502 20.9346 22.1846C21.0348 22.1188 21.1493 22.0739 21.2695 22.0518C21.3385 22.0391 21.4086 22.0342 21.4785 22.0371ZM17.1836 8.33789C17.7519 8.3434 18.3128 8.46051 18.8291 8.68164C19.3453 8.90278 19.8055 9.22299 20.1797 9.62109L20.165 9.60645L23.8652 13.5127C23.9622 13.6063 24.0166 13.7313 24.0166 13.8613C24.0166 13.9914 23.9622 14.1164 23.8652 14.21L22.6064 15.4092C22.5571 15.4566 22.4981 15.4943 22.4326 15.5195C22.3669 15.5447 22.2957 15.557 22.2246 15.5557C22.1533 15.553 22.0829 15.5366 22.0186 15.5078C21.9544 15.4791 21.8973 15.4386 21.8506 15.3887L19.1914 12.4873V25.2646C19.1924 25.3281 19.1796 25.3913 19.1543 25.4502C19.1288 25.5094 19.0901 25.5639 19.042 25.6094C18.9941 25.6546 18.9369 25.6903 18.874 25.7148C18.8108 25.7395 18.7423 25.7529 18.6738 25.7529H16.8984C16.8301 25.7529 16.7623 25.7394 16.6992 25.7148C16.6361 25.6902 16.5783 25.6547 16.5303 25.6094C16.4822 25.564 16.4445 25.5093 16.4189 25.4502C16.3936 25.3912 16.3809 25.3282 16.3818 25.2646V17.8223H15.6328V25.2646C15.6338 25.3282 15.6211 25.3912 15.5957 25.4502C15.5702 25.5094 15.5325 25.5639 15.4844 25.6094C15.4363 25.6548 15.3786 25.6902 15.3154 25.7148C15.2523 25.7394 15.1847 25.7529 15.1162 25.7529H13.333C13.2646 25.7529 13.1969 25.7394 13.1338 25.7148C13.0707 25.6902 13.0129 25.6548 12.9648 25.6094C12.9168 25.564 12.879 25.5094 12.8535 25.4502C12.8282 25.3912 12.8155 25.3282 12.8164 25.2646V12.4873L10.1572 15.3887C10.1124 15.4392 10.0564 15.4799 9.99316 15.5088C9.92986 15.5377 9.8605 15.5537 9.79004 15.5557C9.71773 15.5584 9.64523 15.5467 9.57812 15.5215C9.51115 15.4962 9.45028 15.4579 9.40039 15.4092L8.12695 14.2236C8.03011 14.1301 7.97656 14.005 7.97656 13.875C7.9766 13.745 8.03007 13.6199 8.12695 13.5264L11.8574 9.62109C12.2317 9.22289 12.6927 8.90278 13.209 8.68164C13.7251 8.46059 14.2854 8.34345 14.8535 8.33789H17.1836ZM15.9883 2C16.3813 2 16.7707 2.07446 17.1318 2.21875C17.4931 2.3631 17.819 2.57455 18.0898 2.83984C18.3606 3.10505 18.5706 3.41862 18.707 3.76172C18.8435 4.10485 18.9037 4.47052 18.8838 4.83594C18.8917 5.19608 18.8228 5.55426 18.6816 5.88965C18.5405 6.22503 18.3302 6.53179 18.0615 6.79102C17.7928 7.05027 17.4712 7.25706 17.1162 7.40039C16.7612 7.54372 16.3791 7.62054 15.9922 7.62598C15.6051 7.62049 15.2225 7.5436 14.8672 7.40039C14.512 7.25715 14.1901 7.05006 13.9209 6.79102C13.6518 6.53193 13.4398 6.22596 13.2979 5.89062C13.1558 5.55517 13.0868 5.19645 13.0938 4.83594C13.0738 4.47052 13.1341 4.10485 13.2705 3.76172C13.407 3.41862 13.617 3.10505 13.8877 2.83984C14.1585 2.57455 14.4845 2.3631 14.8457 2.21875C15.2067 2.07452 15.5954 2.00006 15.9883 2Z" fill="#F9700E"/>
<path fill-rule="evenodd" clip-rule="evenodd" d="M21.4785 22.001C21.5578 21.9973 21.638 22.0041 21.7158 22.0205C23.9645 22.4031 27.6799 23.3539 27.958 25.4814L28 25.542V25.8418C27.9753 26.4037 27.6963 26.9062 27.2217 27.3545C27.1992 27.3766 27.1768 27.3991 27.1533 27.4209C27.1398 27.433 27.1261 27.445 27.1123 27.457C25.3343 29.065 21.0618 29.8954 16.6699 29.9599L16.667 29.9541C16.41 29.9593 16.1527 29.9638 15.8955 29.9639C9.95556 29.9639 4.00775 28.5692 4 25.7656C4 23.4433 7.92459 22.4454 10.2617 22.0478C10.3813 22.0226 10.5057 22.0208 10.626 22.043C10.7461 22.0651 10.8598 22.1111 10.96 22.1767C11.0602 22.2424 11.1451 22.3269 11.208 22.4248C11.2709 22.5227 11.3114 22.6319 11.3262 22.7451C11.3532 22.8573 11.3547 22.9741 11.3311 23.0869C11.3074 23.1996 11.2589 23.307 11.1885 23.4014C11.1181 23.4956 11.027 23.5747 10.9219 23.6348C10.8167 23.6948 10.6994 23.7344 10.5771 23.75C6.96774 24.3287 5.79855 25.437 5.79785 25.8418C5.79785 26.7484 9.40812 28.3525 15.9922 28.3525C15.9934 28.3525 15.9949 28.3515 15.9961 28.3515L15.9854 28.3252C18.6602 28.3252 20.8431 28.0607 22.4922 27.6855C24.019 27.3275 25.0889 26.878 25.6758 26.4736C26.0041 26.2365 26.1718 26.0098 26.1719 25.8144C26.1719 25.6355 25.9169 25.3008 25.2803 24.9316C24.7301 24.6484 24.1565 24.4099 23.5654 24.2178C23.0385 24.0565 22.4183 23.9054 21.6934 23.7744C21.5687 23.7555 21.4438 23.7367 21.3184 23.7217C21.1962 23.7061 21.0788 23.6673 20.9736 23.6074C20.8684 23.5474 20.7774 23.4674 20.707 23.373C20.6366 23.2786 20.5881 23.1714 20.5645 23.0586C20.5408 22.9458 20.5423 22.8298 20.5693 22.7178C20.5841 22.6045 20.6246 22.4954 20.6875 22.3974C20.7504 22.2995 20.8343 22.2142 20.9346 22.1484C21.0348 22.0827 21.1493 22.0378 21.2695 22.0156C21.3385 22.0029 21.4086 21.998 21.4785 22.001Z" fill="#D6E1EF" fill-opacity="0.8"/>
</svg>
